<svg xmlns="http://www.w3.org/2000/svg" viewBox="500 279 600 608" role="img" aria-label="J &amp; J">
  <defs>
    <linearGradient id="b1" x1="0" y1="0" x2="0" y2="1"><stop offset="0" stop-color="#3B82E4"/><stop offset="1" stop-color="#6FAEF2"/></linearGradient>
    <linearGradient id="b2" x1="0" y1="0" x2="0" y2="1"><stop offset="0" stop-color="#2058B8"/><stop offset="1" stop-color="#74B0F2"/></linearGradient>
    <linearGradient id="g1" x1="0" y1="0" x2="0" y2="1"><stop offset="0" stop-color="#EBB84C"/><stop offset="1" stop-color="#EFCB7C"/></linearGradient>
    <linearGradient id="g2" x1="0" y1="0" x2="0" y2="1"><stop offset="0" stop-color="#FAE6B2"/><stop offset="1" stop-color="#F4D590"/></linearGradient>
  </defs>
  <path fill="url(#b1)" d="M502 884V471A285 190 0 0 1 787 281V483H735A46 46 0 0 0 689 529V619A46 46 0 0 0 735 665H787V884Z"/>
  <path fill="url(#b2)" d="M502 660C545 555 630 505 703 497A46 46 0 0 0 689 529V619A46 46 0 0 0 735 665H787V884H502Z"/>
  <path fill="url(#g1)" d="M817 281H1098V684C1098 810 990 884 817 884V665H840A46 46 0 0 0 886 619V529A46 46 0 0 0 840 483H817Z"/>
  <path fill="url(#g2)" d="M1098 458C1062 575 975 645 873 652A46 46 0 0 1 840 665H817V884C990 884 1098 810 1098 684Z"/>
</svg>
